<svg id="Layer_1" data-name="Layer 1" xmlns="http://www.w3.org/2000/svg" viewBox="0 0 17.83 20.5"><title>calculator</title><path d="M19.43,22.25H5.17a1.76,1.76,0,0,1-1.78-1.78V3.53A1.76,1.76,0,0,1,5.17,1.75H19.43a1.77,1.77,0,0,1,1.79,1.78V20.47A1.77,1.77,0,0,1,19.43,22.25ZM5.17,2.64a.87.87,0,0,0-.89.89V20.47a.87.87,0,0,0,.89.89H19.43a.87.87,0,0,0,.89-.89V3.53a.87.87,0,0,0-.89-.89ZM18.54,19.58H15V13.34h3.56Zm-2.67-.89h1.78V14.23H15.87Zm-3.12.89H11v-.89h1.78Zm-4.46,0H6.51v-.89H8.29Zm4.46-2.68H11V16h1.78Zm-4.46,0H6.51V16H8.29Zm4.46-2.67H11v-.89h1.78Zm-4.46,0H6.51v-.89H8.29Zm9.36-2.68H15.87v-.89h1.78Zm-4.9,0H11v-.89h1.78Zm-4.46,0H6.51v-.89H8.29ZM18.54,8.88H6.06V4.42H18.54ZM7,8h10.7V5.31H7Z" transform="translate(-3.39 -1.75)"/></svg>