<svg id="Layer_1" data-name="Layer 1" xmlns="http://www.w3.org/2000/svg" viewBox="0 0 20.97 20.58"><defs><style>.cls-1{fill:#111;}</style></defs><title>survey</title><path class="cls-1" d="M3.8,22,1.41,19.6l.7-.7L3.8,20.59l4.27-4.28.7.71Zm18.58-1.7H10v-1H22.38ZM6.63,14.54,4.74,12.65,2.85,14.54l-.7-.7L4,12,2.15,10.06l.7-.7,1.89,1.89L6.63,9.36l.7.7L5.45,12l1.88,1.89Zm15.75-2.19H10v-1H22.38ZM3.8,7.09,1.41,4.7,2.11,4,3.8,5.68,8.07,1.41l.7.7ZM22.38,4.4H10v-1H22.38Z" transform="translate(-1.41 -1.41)"/></svg>