<svg width="30" height="30" xmlns="http://www.w3.org/2000/svg">
 <g>
  <title>background</title>
  <rect fill="none" id="canvas_background" height="32" width="32" y="-1" x="-1"/>
 </g>

 <g>
  <title>Layer 1</title>
  <g stroke="null" id="svg_1">
   <g stroke="null" id="svg_2">
    <path stroke="null" id="svg_3" fill="#F9C10F" d="m269.30085,218.81041c-4.05892,4.51973 -2.80477,13.65502 4.22576,13.65502l18.4986,-0.01386c-0.70248,4.37829 -1.72005,11.63617 -1.67976,12.31855c0.38843,6.49353 4.093,14.39223 4.25003,14.71263c0.67511,1.40517 4.08371,3.31027 7.51711,2.49396c4.43495,-1.06108 4.88795,-4.22299 4.86987,-5.09472c0,0 -0.19421,-8.64977 -0.20971,-10.95784c2.11727,-5.20845 9.42828,-18.88367 11.65041,-19.93783c0.52996,0.35851 1.1281,0.54787 1.75362,0.54787l23.37158,0c1.98504,0 3.58164,-1.79485 3.58164,-4.00304l-0.0031,-36.10065c-0.13895,-1.9461 -1.6152,-3.4725 -3.36573,-3.4725l-20.98881,0c-1.86158,0 -3.37812,1.69151 -3.37812,3.77212l0,1.19848c0,0 -0.77997,0.06178 -1.13431,-0.18935c-1.34712,-0.95775 -3.01759,-2.16317 -5.19322,-2.16317l-31.32361,0c-11.71187,0 -10.45153,11.61886 -9.38489,13.20356c-1.97884,2.40794 -3.2025,6.65518 -1.53203,10.01048c-1.28824,1.52178 -3.54445,5.69685 -1.52533,10.0203l0,-0.00001zm54.18588,-32.07048l20.27702,0l0,36.02791l-20.27702,0c0,0.00058 0,-36.02791 0,-36.02791zm-48.72457,32.3805l0.19111,-0.89194c-5.39674,-1.71517 -2.52429,-8.66363 1.34402,-9.11797l0.19112,-0.89193c-5.17515,-1.47156 -2.70612,-8.62957 1.3466,-9.11912l0.18802,-0.88848c-4.22576,-0.77532 -3.20251,-8.83566 3.19941,-8.83566l31.86234,-0.01385c2.25002,0 4.29962,2.86574 5.9577,2.86574l1.44267,0l0,27.72972c-1.80012,1.25045 -4.00984,2.86575 -5.24281,4.0371c-2.32388,2.21512 -11.83532,19.39343 -11.83532,21.54332c0,2.14931 0.21281,11.45028 0.21281,11.45028s-1.86778,2.68331 -6.02846,0.72683c0,0 -3.50416,-7.34737 -3.8616,-13.19663c0,0 1.57491,-12.05646 2.42564,-15.84243l-22.09006,0c-5.42101,-0.00288 -4.38536,-8.66651 0.69681,-9.55498z"/>
   </g>
  </g>
  <g transform="rotate(-180 15.076511383056642,14.999998092651365) " id="svg_20" stroke="null">
   <path id="svg_19" fill="#F9C10F" d="m3.87237,13.87209c-1.20422,1.35757 -0.83213,4.10151 1.25372,4.10151l5.48828,-0.00416c-0.20843,1.31507 -0.51032,3.4951 -0.49837,3.70007c0.11525,1.95043 1.21433,4.32292 1.26092,4.41917c0.2003,0.42206 1.21158,0.99429 2.23022,0.7491c1.31579,-0.31872 1.45018,-1.26845 1.44482,-1.53029c0,0 -0.05763,-2.59809 -0.06222,-3.29135c0.62817,-1.56444 2.79724,-5.67202 3.45651,-5.98864c0.15723,0.10768 0.33469,0.16455 0.52028,0.16455l6.934,0c0.58893,0 1.06262,-0.5391 1.06262,-1.20237l-0.00091,-10.84341c-0.04122,-0.58453 -0.47922,-1.04301 -0.99857,-1.04301l-6.22708,0c-0.5523,0 -1.00223,0.50807 -1.00223,1.13301l0,0.35998c0,0 -0.2314,0.01856 -0.33654,-0.05687c-0.39967,-0.28767 -0.89526,-0.64974 -1.54075,-0.64974l-9.29326,0c-3.47473,0 -3.10081,3.48991 -2.78436,3.96589c-0.58708,0.72327 -0.95013,1.99899 -0.45452,3.00681c-0.38221,0.45709 -1.05159,1.71114 -0.45255,3.00975l-0.00001,0zm16.07618,-9.63287l6.01589,0l0,10.82155l-6.01589,0c0,0.00018 0,-10.82155 0,-10.82155zm-14.45588,9.726l0.05669,-0.26791c-1.60113,-0.51518 -0.74891,-2.60227 0.39876,-2.73873l0.05671,-0.2679c-1.5354,-0.44201 -0.80288,-2.59202 0.39951,-2.73907l0.05578,-0.26687c-1.25372,-0.23288 -0.95013,-2.65393 0.94922,-2.65393l9.4531,-0.00416c0.66754,0 1.27562,0.86077 1.76756,0.86077l0.42802,0l0,8.32906c-0.53407,0.37559 -1.18967,0.86077 -1.55547,1.2126c-0.68946,0.66535 -3.51136,5.82512 -3.51136,6.47088c0,0.64558 0.06313,3.43927 0.06313,3.43927s-0.55415,0.80598 -1.78855,0.21832c0,0 -1.03964,-2.2069 -1.14568,-3.96382c0,0 0.46725,-3.62134 0.71964,-4.75852l-6.55379,0c-1.60834,-0.00087 -1.30108,-2.60312 0.20673,-2.86999z" stroke="null"/>
  </g>
 </g>
</svg>