<?xml version="1.0" encoding="UTF-8"?>
<svg width="42px" height="43px" viewBox="0 0 42 43" version="1.1" xmlns="http://www.w3.org/2000/svg" xmlns:xlink="http://www.w3.org/1999/xlink">
    <!-- Generator: Sketch 53.1 (72631) - https://sketchapp.com -->
    <title>like</title>
    <desc>Created with Sketch.</desc>
    <g id="Page-1" stroke="none" stroke-width="1" fill="none" fill-rule="evenodd">
        <g id="like" transform="translate(1.000000, 1.000000)" fill="#111111" fill-rule="nonzero">
            <g id="Group" transform="translate(20.000000, 20.500000) scale(-1, 1) rotate(-180.000000) translate(-20.000000, -20.500000) translate(0.000000, -0.000000)">
                <g transform="translate(20.000000, 20.500000) scale(-1, 1) rotate(-180.000000) translate(-20.000000, -20.500000) translate(0.000000, -0.000000)">
                    <path d="M34,41.1 L20,41.1 C17.3574494,41.1 14.6200778,40.4224328 12.0448889,39.1904347 L7.54488894,36.8904347 L8.45511106,35.1095653 L12.9314555,37.3978658 C15.2245117,38.4945448 17.6705506,39.1 20,39.1 L34,39.1 C35.6477153,39.1 37,37.7477153 37,36.1 L37.0077221,35.9759653 L38.9994444,20.042187 C38.9682603,18.4207714 37.6284031,17.1 36,17.1 L25,17.1 L25,10.1 C25,6.84971266 22.9369865,2.69462905 20.4759026,1.25165832 C19.8577481,0.871255556 19,1.36400446 19,2.1 L19,10.4643809 L8.76557811,22.643343 L7.23442189,21.356657 L17,9.73561909 L17,2.1 C17,-0.187408713 19.5619218,-1.65915102 21.5057195,-0.46269797 C24.6035918,1.35329612 27,6.1798648 27,10.1 L27,15.1 L36,15.1 C38.7522847,15.1 41,17.3477153 41,20.1 L40.9922779,20.2240347 L38.999573,36.1656735 C38.9641594,38.8879507 36.7303613,41.1 34,41.1 Z" id="Path"></path>
                    <path d="M1,19 L1,39 L7,39 L7,19 L1,19 Z M9,17 L9,41 L-1,41 L-1,17 L9,17 Z" id="Rectangle"></path>
                </g>
            </g>
        </g>
    </g>
</svg>